<?xml version="1.0" standalone="no"?>
<!DOCTYPE svg PUBLIC "-//W3C//DTD SVG 20010904//EN"
 "http://www.w3.org/TR/2001/REC-SVG-20010904/DTD/svg10.dtd">
<svg version="1.0" xmlns="http://www.w3.org/2000/svg"
 width="475.000000pt" height="405.000000pt" viewBox="0 0 475.000000 405.000000"
 preserveAspectRatio="xMidYMid meet">

<g transform="translate(0.000000,405.000000) scale(0.100000,-0.100000)"
fill="#3d3d3d" stroke="none">
<path fill="#3f51b5" d="M2110 3634 c-230 -36 -485 -141 -684 -281 -104 -74 -305 -275 -379
-379 -64 -91 -141 -232 -187 -345 -35 -82 -85 -267 -95 -344 -4 -27 -9 -58
-12 -67 -4 -16 6 -18 105 -18 l109 0 17 89 c77 422 366 805 756 1001 101 51
259 105 361 125 46 8 84 17 86 19 2 2 2 50 1 108 l-3 104 -75 -12z"/>
<path d="M2550 3542 l0 -109 78 -12 c99 -16 287 -78 389 -129 393 -198 682
-579 759 -1003 l17 -89 104 0 c95 0 104 2 100 18 -3 9 -8 40 -12 67 -10 77
-60 262 -95 344 -90 219 -195 376 -365 546 -170 170 -327 275 -546 365 -82 35
-267 85 -344 95 -27 4 -58 9 -67 12 -16 4 -18 -6 -18 -105z"/>
<path d="M1690 2295 l0 -695 90 0 90 0 0 330 0 330 225 0 225 0 0 -575 0 -575
405 0 405 0 0 75 0 75 -320 0 -320 0 0 580 0 580 -310 0 -310 0 0 205 0 205
305 0 305 0 0 80 0 80 -395 0 -395 0 0 -695z"/>
<path d="M753 1833 c3 -10 8 -40 12 -68 10 -77 60 -262 95 -344 46 -113 123
-254 187 -345 74 -104 275 -305 379 -379 200 -141 450 -244 686 -282 l78 -12
0 103 c0 57 -2 104 -4 104 -32 0 -190 39 -268 66 -357 124 -642 373 -810 707
-51 102 -113 290 -129 390 l-12 77 -109 0 c-99 0 -109 -2 -105 -17z"/>
<path fill="#3f51b5" d="M3781 1773 c-16 -100 -78 -288 -129 -390 -138 -273 -362 -497 -635
-635 -102 -51 -290 -113 -389 -129 l-78 -12 0 -104 c0 -95 2 -104 18 -100 9 3
40 8 67 12 77 10 262 60 344 95 219 90 376 195 546 365 170 170 275 327 365
546 35 82 85 267 95 344 4 28 9 58 12 68 4 15 -5 17 -100 17 l-104 0 -12 -77z"/>
</g>
</svg>
